# xmcd
#
# Track frame offsets:
#	150
#	26623
#	51566
#	74258
#	100323
#	123863
#	151970
#	170658
#	193838
#	210981
#	234094
#	248326
#	270254
#	289436
#	307102
#	330850
#
# Disc length: 4631 seconds
#
# Revision: 0
# Processed by: cddbd v1.5.2PL0 Copyright (c) Steve Scherf et al.
# Submitted via: EasyCDDAExtractor 16.0.6.1
#
DISCID=da121510
DTITLE=GQ - Standing Ovation: The Story of GQ and the Rhythm Makers 1974-1982
DYEAR=2016
DGENRE=Disco
TTITLE0=Disco Nights (Rock Freak) (Long Version)
TTITLE1=Standing Ovation (Long Version)
TTITLE2=Shake (Long Version)
TTITLE3=Zone
TTITLE4=Try Smurfin’ (Long Version)
TTITLE5=Make My Dreams A Reality
TTITLE6=Is It Cool?
TTITLE7=You’Ve Got The Floor
TTITLE8=Spirit
TTITLE9=Monterey 
TTITLE10=Touch
TTITLE11=I Love (The Skin You’Re In)
TTITLE12=It’S Your Love
TTITLE13=Gq Down
TTITLE14=Boogie Oogie Oogie (Long Version)
TTITLE15=Soul On Your Side 
EXTD=
EXTT0=
EXTT1=
EXTT2=
EXTT3=
EXTT4=
EXTT5=
EXTT6=
EXTT7=
EXTT8=
EXTT9=
EXTT10=
EXTT11=
EXTT12=
EXTT13=
EXTT14=
EXTT15=
PLAYORDER=
